<svg id="Layer_1" data-name="Layer 1" xmlns="http://www.w3.org/2000/svg" viewBox="0 0 1024 1024"><defs><style>.cls-1{fill:#1f1c1c;}.cls-2{fill:#c02023;}</style></defs><rect class="cls-1" width="1024" height="1024"/><path class="cls-2" d="M140.82,704.91H124.28L121,712.57h-6.34l14.89-33.09h6.05l14.94,33.09h-6.43Zm-2-4.82-6.24-14.46-6.19,14.46Z"/><path class="cls-2" d="M217.24,679.48v33.09h-5.06l-18.25-22.4v22.4h-6.09V679.48h5l18.25,22.41V679.48Z"/><path class="cls-2" d="M256.83,696c0-9.88,7.56-17,17.73-17,5.38,0,10,1.94,13.09,5.53l-4,3.74a11.62,11.62,0,0,0-8.84-3.88C268,684.4,263,689.22,263,696s5,11.63,11.82,11.63a11.53,11.53,0,0,0,8.84-3.92l4,3.77c-3.07,3.6-7.71,5.54-13.14,5.54C264.39,713.05,256.83,705.91,256.83,696Z"/><path class="cls-2" d="M326.63,679.48h6.14v33.09h-6.14Z"/><path class="cls-2" d="M399.6,707.42v5.15H374.78V679.48h24.15v5.16h-18v8.6h16v5.06h-16v9.12Z"/><path class="cls-2" d="M468.92,679.48v33.09h-5.05l-18.25-22.4v22.4h-6.1V679.48h5.06l18.25,22.41V679.48Z"/><path class="cls-2" d="M517.59,684.68h-11v-5.2H534.7v5.2h-11v27.89h-6.15Z"/><path class="cls-2" d="M647.93,679.48v33.09h-5.06l-18.24-22.4v22.4h-6.1V679.48h5.06l18.24,22.41V679.48Z"/><path class="cls-2" d="M714.7,707.42v5.15H689.89V679.48H714v5.16H696v8.6h16v5.06H696v9.12Z"/><path class="cls-2" d="M776.28,712.57l-6.76-9.69a11,11,0,0,1-1.28,0h-7.46v9.64h-6.15V679.48h13.61c8.7,0,14.09,4.45,14.09,11.78a10.58,10.58,0,0,1-7,10.44l7.61,10.87ZM768,684.68h-7.18v13.19H768c5.39,0,8.18-2.46,8.18-6.61S773.35,684.68,768,684.68Z"/><path class="cls-2" d="M822.25,679.48h14.47c10.73,0,18,6.62,18,16.55s-7.32,16.54-18,16.54H822.25Zm14.18,27.89c7.38,0,12.15-4.49,12.15-11.34s-4.77-11.35-12.15-11.35h-8v22.69Z"/><path class="cls-2" d="M891.58,709.08l2.13-4.78a18.28,18.28,0,0,0,10.91,3.64c5.16,0,7.33-1.84,7.33-4.3,0-7.14-19.66-2.46-19.66-14.75,0-5.34,4.25-9.88,13.33-9.88a20.91,20.91,0,0,1,11,2.93l-1.94,4.78a18.38,18.38,0,0,0-9.12-2.6c-5.11,0-7.18,2-7.18,4.49,0,7,19.61,2.46,19.61,14.6,0,5.3-4.3,9.84-13.38,9.84C899.47,713.05,894.32,711.44,891.58,709.08Z"/><polygon class="cls-2" points="582.15 491.4 543.24 558.73 545.35 425.3 517.27 376.76 369.3 632.98 428.77 632.98 489.36 528.05 489.36 632.98 559.85 632.98 611.89 542.91 582.15 491.4"/><polygon class="cls-2" points="516.34 218.3 276.93 632.98 336.4 632.98 516.34 321.32 666.54 581.47 622.34 581.47 592.6 632.98 755.76 632.98 516.34 218.3"/></svg>